<svg width="24" height="24" viewBox="0 0 24 24" fill="none" xmlns="http://www.w3.org/2000/svg">
  <path d="M12 4C12 6.20914 10.2091 8 8 8C5.79086 8 4 6.20914 4 4C4 1.79086 5.79086 0 8 0C10.2091 0 12 1.79086 12 4Z" fill="#10B981"/>
  <path d="M12 20C12 22.2091 10.2091 24 8 24C5.79086 24 4 22.2091 4 20C4 17.7909 5.79086 16 8 16C10.2091 16 12 17.7909 12 20Z" fill="#10B981"/>
  <path d="M24 12C24 14.2091 22.2091 16 20 16C17.7909 16 16 14.2091 16 12C16 9.79086 17.7909 8 20 8C22.2091 8 24 9.79086 24 12Z" fill="#10B981"/>
  <path d="M8 9L20 12M8 16L20 12" stroke="#10B981" stroke-width="2"/>
</svg> 